<svg
	xmlns="http://www.w3.org/2000/svg"
	fillRule="evenodd"
	strokeLinejoin="round"
	strokeMiterlimit="2"
	clipRule="evenodd"
	viewBox="0 0 1357 787"
>
	<g transform="matrix(1 0 0 .85368 -70.684 -291.067)">
		<path fill="none" d="M70.684 340.954H1427.004V1262.311H70.684z"></path>
		<g fill="#FFFFFF" fillRule="nonzero">
			<path
				d="M325.369 52.166h40.534v189.066h-40.534v-81.333h-86.666v81.333h-40.267V52.166h40.267v70.933h86.666V52.166zM509.636 52.166h48.8l-67.467 100.533v88.533h-40.266v-88.533L383.236 52.166h48.8l38.933 58.133 38.667-58.133zM657.369 52.166c7.467 0 14.489 1.466 21.067 4.4 6.578 2.933 12.311 6.933 17.2 12 4.889 5.066 8.756 11.022 11.6 17.866 2.844 6.845 4.267 14.178 4.267 22 0 7.823-1.423 15.156-4.267 22-2.844 6.845-6.711 12.845-11.6 18-4.889 5.156-10.622 9.2-17.2 12.134-6.578 2.933-13.6 4.4-21.067 4.4h-41.333v76.266h-40.267V52.166h81.6zm-5.333 76c5.156 0 9.644-1.911 13.467-5.734 3.822-3.822 5.733-8.489 5.733-14 0-5.333-1.911-9.911-5.733-13.733-3.823-3.822-8.311-5.733-13.467-5.733h-36v39.2h36zM727.503 52.166h118.133v36.8h-77.6v34.133h68.267v36.8h-68.267v44.8h77.6v36.533H727.503V52.166zM1006.97 108.432c0 6.045-.85 11.778-2.53 17.2-1.69 5.423-4.05 10.4-7.071 14.934a53.928 53.928 0 01-10.933 12 58.397 58.397 0 01-13.867 8.4l62.671 80.266h-47.204l-58.4-76.266h-18.133v76.266h-40.534V52.166h81.6c7.467 0 14.534 1.466 21.2 4.4 6.667 2.933 12.445 6.933 17.334 12 4.889 5.066 8.755 11.022 11.597 17.866 2.85 6.845 4.27 14.178 4.27 22zm-59.467 19.734c5.155 0 9.6-1.911 13.333-5.734 3.733-3.822 5.6-8.489 5.6-14 0-5.333-1.867-9.911-5.6-13.733-3.733-3.822-8.178-5.733-13.333-5.733h-36v39.2h36z"
				transform="matrix(1 0 0 1.17139 -168.858 486.516) translate(-59.62 -181.111) scale(1.59088)"
			></path>
			<g>
				<path
					d="M1039.77 52.166h136.8v36.8h-48.27v152.266h-40.26V88.966h-48.27v-36.8zM1302.01 23.696l40.12.138.31 203.825c0 9.422-1.96 18.489-5.87 27.2-3.91 8.711-9.24 16.355-16 22.933-6.76 6.578-14.62 11.822-23.6 15.734-8.98 3.911-18.62 5.866-28.93 5.866-10.14 0-19.74-1.955-28.8-5.866-9.07-3.912-16.94-9.156-23.6-15.734-6.67-6.578-11.96-14.222-15.87-22.933-3.91-8.711-5.87-17.778-5.87-27.2V52.166h40.27v167.493c0 5.333.89 10.355 2.67 15.067 1.77 4.711 4.17 8.888 7.2 12.533 3.02 3.644 6.62 6.533 10.8 8.667 4.17 2.133 8.57 3.2 13.2 3.2 4.8 0 9.24-1.067 13.33-3.2 4.09-2.134 7.69-5.023 10.8-8.667 3.11-3.645 5.56-7.822 7.33-12.533 1.78-4.712 2.67-9.734 2.67-15.067l-.16-195.963zM1484.3 138.299c7.47 5.156 13.43 11.778 17.87 19.867 4.44 8.089 6.67 17.022 6.67 26.8 0 7.822-1.51 15.155-4.54 22-3.02 6.844-7.11 12.8-12.26 17.866-5.16 5.067-11.16 9.067-18 12-6.85 2.934-14.18 4.4-22 4.4h-85.87V52.166h83.2c7.11 0 13.78 1.377 20 4.133 6.22 2.756 11.69 6.444 16.4 11.067 4.71 4.622 8.4 10.044 11.07 16.266 2.66 6.223 4 12.889 4 20 0 7.645-1.47 14.356-4.4 20.134-2.94 5.777-6.98 10.622-12.14 14.533zm-77.6-15.2h42.67c4.8 0 8.89-1.689 12.27-5.067 3.37-3.377 5.06-7.466 5.06-12.266s-1.69-8.8-5.06-12c-3.38-3.2-7.47-4.8-12.27-4.8h-42.67v34.133zm45.34 81.6c5.33 0 9.86-2.267 13.6-6.8 3.73-4.533 5.6-9.822 5.6-15.867 0-6.222-1.87-11.466-5.6-15.733-3.74-4.267-8.27-6.4-13.6-6.4h-45.34v44.8h45.34zM1531.24 52.166h118.13v36.8h-77.6v34.133h68.27v36.8h-68.27v44.8h77.6v36.533h-118.13V52.166z"
					transform="matrix(1 0 0 1.17139 -168.858 486.516) translate(-1222.78 163.637) scale(1.59686)"
				></path>
			</g>
		</g>
	</g>
</svg>
